<svg width="120" height="100" viewBox="0 0 120 100" fill="none" xmlns="http://www.w3.org/2000/svg">
<g id="Frame 1" clip-path="url(#clip0_1_2)">
<g id="lightGroup">
<path id="light1" d="M44.1696 42.8661C46.2547 44.0031 46.2547 46.9969 44.1696 48.1339L12.9362 65.1647C10.9371 66.2548 8.5 64.8078 8.5 62.5308L8.5 28.4692C8.5 26.1922 10.9371 24.7452 12.9362 25.8353L44.1696 42.8661Z" fill="#13ABDB" fill-opacity="0.5"/>
</g>
<g id="darkGroup">
<path id="dark1" d="M44.1696 42.8661C46.2547 44.0031 46.2547 46.9969 44.1696 48.1339L12.9362 65.1647C10.9371 66.2548 8.5 64.8078 8.5 62.5308L8.5 28.4692C8.5 26.1922 10.9371 24.7452 12.9362 25.8353L44.1696 42.8661Z" fill="#2825D7" fill-opacity="0.8"/>
<path id="dark2" d="M57.1696 42.8661C59.2547 44.0031 59.2547 46.9969 57.1696 48.1339L25.9362 65.1647C23.9371 66.2548 21.5 64.8078 21.5 62.5308L21.5 28.4692C21.5 26.1922 23.9371 24.7452 25.9362 25.8353L57.1696 42.8661Z" fill="#3E1ACF" fill-opacity="0.5"/>
</g>
</g>
<defs>
<clipPath id="clip0_1_2">
<rect width="120" height="100" fill="white"/>
</clipPath>
</defs>
</svg>
